<svg data-v-423bf9ae="" xmlns="http://www.w3.org/2000/svg" viewBox="0 0 793.6284260817317 60" class="font"><!----><!----><!----><g data-v-423bf9ae="" id="862809d0-6e1f-4e4d-a413-7bf638b6e3ae" fill="black" transform="matrix(4.354136212645278,0,0,4.354136212645278,1.785187811413266,-0.4789546380690055)"><path d="M-0.41 10.50L2.67 10.50L2.67 10.09L1.95 10.02C1.53 9.98 1.48 9.84 1.60 9.46C1.83 8.62 2.13 7.76 2.45 6.76L5.59 6.76L6.52 9.44C6.66 9.84 6.59 10.00 6.15 10.04L5.52 10.09L5.52 10.50L9.10 10.50L9.10 10.09C8.29 10.02 8.13 9.98 7.88 9.25L4.91 0.81L3.88 0.81L2.41 4.96C1.97 6.17 1.39 7.85 0.90 9.13C0.60 9.88 0.48 10.05-0.41 10.09ZM2.63 6.23C3.08 4.83 3.57 3.46 3.99 2.23L4.03 2.23L5.42 6.23ZM9.58 7.21C9.58 9.28 10.65 10.67 12.50 10.67C13.26 10.67 13.92 10.33 14.67 9.72L14.67 10.40L14.78 10.50L17.05 10.50L17.05 10.09C16.06 10.02 16.00 10.00 16.00 9.28L16.00 0.20L15.90 0.11L13.71 0.46L13.71 0.81L14.24 0.87C14.60 0.91 14.69 0.98 14.69 1.51L14.69 3.81C14.29 3.60 13.78 3.47 13.13 3.47C11.98 3.47 11.13 3.84 10.54 4.44C9.94 5.07 9.58 5.99 9.58 7.21ZM11.03 7.04C11.03 5.22 11.69 3.96 13.12 3.96C13.78 3.96 14.31 4.27 14.56 4.84C14.67 5.08 14.69 5.28 14.69 5.66L14.69 8.12C14.69 8.43 14.67 8.67 14.59 8.90C14.31 9.63 13.69 9.91 12.96 9.91C11.68 9.91 11.03 8.65 11.03 7.04ZM17.95 8.68C17.95 9.73 18.65 10.67 19.96 10.67C20.78 10.67 21.60 10.12 22.05 9.83C22.25 10.35 22.47 10.67 22.96 10.67C23.48 10.67 24.08 10.51 24.61 10.25L24.53 9.91C24.33 9.95 24.02 9.98 23.81 9.93C23.56 9.87 23.32 9.60 23.32 8.72L23.32 5.33C23.32 4.52 23.14 3.47 21.03 3.47C19.45 3.47 18.20 4.30 18.20 5.07C18.20 5.52 18.72 5.73 18.98 5.73C19.28 5.73 19.36 5.57 19.43 5.33C19.74 4.30 20.31 3.96 20.87 3.96C21.42 3.96 22.06 4.24 22.06 5.36L22.06 5.95C21.71 6.31 20.36 6.66 19.25 7.01C18.24 7.32 17.95 8.02 17.95 8.68ZM19.36 8.48C19.36 7.83 19.67 7.49 20.45 7.20C21.01 6.99 21.76 6.72 22.06 6.52L22.06 8.50C22.06 9.63 21.20 9.93 20.65 9.93C19.78 9.93 19.36 9.31 19.36 8.48ZM25.03 10.50L28.45 10.50L28.45 10.09C27.45 10.02 27.40 10.00 27.40 9.28L27.40 6.01C27.40 5.66 27.41 5.46 27.51 5.26C27.78 4.70 28.39 4.23 29.16 4.23C30.37 4.23 30.51 5.11 30.51 5.98L30.51 9.28C30.51 10.00 30.46 10.02 29.46 10.09L29.46 10.50L32.87 10.50L32.87 10.09C31.88 10.02 31.82 10.00 31.82 9.28L31.82 6.01C31.82 5.66 31.84 5.46 31.92 5.24C32.13 4.68 32.73 4.23 33.52 4.23C34.40 4.23 34.93 4.73 34.93 5.98L34.93 9.28C34.93 10.00 34.89 10.02 33.88 10.09L33.88 10.50L37.30 10.50L37.30 10.09C36.30 10.02 36.25 10.00 36.25 9.28L36.25 5.70C36.25 4.28 35.49 3.47 34.16 3.47C33.01 3.47 32.19 4.24 31.70 4.55C31.36 3.89 30.83 3.47 29.85 3.47C28.77 3.47 27.89 4.17 27.40 4.54L27.27 3.47L25.10 3.82L25.10 4.17L25.63 4.24C26.00 4.30 26.08 4.37 26.08 4.87L26.08 9.28C26.08 10.00 26.04 10.02 25.03 10.09ZM38.82 0.85L39.31 4.00L39.59 4.00L40.08 0.85C40.15 0.35 39.97 0.11 39.45 0.11C38.93 0.11 38.75 0.35 38.82 0.85ZM42.06 8.16L42.20 10.00C42.70 10.44 43.55 10.67 44.38 10.67C46.05 10.67 47.00 9.79 47.00 8.60C47.00 7.36 46.24 6.80 44.80 6.36C44.23 6.17 43.30 5.88 43.30 5.10C43.30 4.37 43.86 3.96 44.56 3.96C45.56 3.96 46.03 4.73 46.13 5.59L46.54 5.59L46.54 3.95C46.07 3.61 45.36 3.47 44.73 3.47C43.22 3.47 42.18 4.19 42.18 5.52C42.18 6.68 43.13 7.20 44.30 7.55C44.93 7.74 45.81 8.06 45.81 9.02C45.81 9.73 45.25 10.18 44.51 10.18C43.37 10.18 42.74 9.35 42.46 8.16ZM51.14 10.50L55.27 10.50L55.27 10.09C53.83 10.01 53.79 9.98 53.79 9.20L53.79 6.52L54.59 6.52C55.23 6.52 55.86 6.47 56.38 6.34C57.46 6.06 58.69 5.31 58.69 3.56C58.69 2.49 58.23 1.76 57.60 1.37C56.92 0.95 56.03 0.81 55.05 0.81L51.14 0.81L51.14 1.22C52.37 1.30 52.40 1.33 52.40 2.11L52.40 9.20C52.40 9.98 52.37 10.01 51.14 10.09ZM53.79 5.49L53.79 1.82C53.79 1.43 53.94 1.30 54.85 1.30C56.29 1.30 57.18 2.13 57.18 3.65C57.18 5.40 56.03 6.03 54.82 6.03C54.00 6.03 53.79 6.01 53.79 5.49ZM59.74 7.13C59.74 9.34 60.69 10.67 62.97 10.67C64.53 10.67 65.32 9.80 65.70 8.69L65.28 8.47C64.89 9.28 64.36 9.95 63.25 9.95C61.52 9.95 61.17 8.27 61.19 6.82L65.23 6.82C65.52 6.82 65.79 6.75 65.79 6.29C65.79 5.46 65.52 3.47 62.96 3.47C60.77 3.47 59.74 5.03 59.74 7.13ZM61.21 6.29C61.21 5.71 61.42 3.96 62.87 3.96C64.18 3.96 64.33 5.29 64.33 5.84C64.33 6.10 64.25 6.29 63.85 6.29ZM66.70 10.50L70.39 10.50L70.39 10.09C69.15 10.02 69.06 10.00 69.06 9.28L69.06 6.01C69.06 4.93 69.54 4.56 69.86 4.56C70.08 4.56 70.32 4.65 70.73 4.87C70.83 4.93 70.94 4.94 71.01 4.94C71.34 4.94 71.65 4.59 71.65 4.16C71.65 3.85 71.46 3.47 70.91 3.47C70.41 3.47 69.99 3.78 69.06 4.59L68.89 3.47L66.77 3.82L66.77 4.17L67.30 4.24C67.66 4.30 67.75 4.37 67.75 4.87L67.75 9.28C67.75 10.00 67.68 10.02 66.70 10.09ZM72.35 8.16L72.49 10.00C73.00 10.44 73.85 10.67 74.68 10.67C76.34 10.67 77.29 9.79 77.29 8.60C77.29 7.36 76.54 6.80 75.10 6.36C74.52 6.17 73.60 5.88 73.60 5.10C73.60 4.37 74.16 3.96 74.86 3.96C75.85 3.96 76.33 4.73 76.43 5.59L76.83 5.59L76.83 3.95C76.37 3.61 75.66 3.47 75.03 3.47C73.51 3.47 72.48 4.19 72.48 5.52C72.48 6.68 73.43 7.20 74.59 7.55C75.22 7.74 76.10 8.06 76.10 9.02C76.10 9.73 75.54 10.18 74.80 10.18C73.67 10.18 73.04 9.35 72.76 8.16ZM78.48 7.07C78.48 9.34 79.59 10.67 81.84 10.67C84.10 10.67 85.20 9.34 85.20 7.07C85.20 4.80 84.10 3.47 81.84 3.47C79.59 3.47 78.48 4.80 78.48 7.07ZM79.94 7.07C79.94 5.14 80.56 3.96 81.84 3.96C83.13 3.96 83.75 5.14 83.75 7.07C83.75 9.00 83.13 10.18 81.84 10.18C80.56 10.18 79.94 9.00 79.94 7.07ZM86.32 10.50L89.74 10.50L89.74 10.09C88.75 10.02 88.69 10.00 88.69 9.28L88.69 6.01C88.69 5.66 88.72 5.46 88.83 5.24C89.12 4.69 89.75 4.23 90.50 4.23C91.45 4.23 91.97 4.76 91.97 5.98L91.97 9.28C91.97 10.00 91.92 10.02 90.92 10.09L90.92 10.50L94.33 10.50L94.33 10.09C93.34 10.02 93.28 10.00 93.28 9.28L93.28 5.70C93.28 4.28 92.51 3.47 91.22 3.47C90.19 3.47 89.54 3.98 88.68 4.54L88.48 3.47L86.39 3.82L86.39 4.17L86.93 4.24C87.29 4.30 87.37 4.37 87.37 4.87L87.37 9.28C87.37 10.00 87.33 10.02 86.32 10.09ZM95.23 8.68C95.23 9.73 95.93 10.67 97.24 10.67C98.06 10.67 98.88 10.12 99.33 9.83C99.53 10.35 99.75 10.67 100.24 10.67C100.76 10.67 101.36 10.51 101.89 10.25L101.81 9.91C101.61 9.95 101.30 9.98 101.09 9.93C100.84 9.87 100.60 9.60 100.60 8.72L100.60 5.33C100.60 4.52 100.42 3.47 98.31 3.47C96.73 3.47 95.48 4.30 95.48 5.07C95.48 5.52 96.00 5.73 96.26 5.73C96.56 5.73 96.64 5.57 96.71 5.33C97.02 4.30 97.59 3.96 98.15 3.96C98.70 3.96 99.34 4.24 99.34 5.36L99.34 5.95C98.99 6.31 97.64 6.66 96.53 7.01C95.52 7.32 95.23 8.02 95.23 8.68ZM96.64 8.48C96.64 7.83 96.95 7.49 97.73 7.20C98.29 6.99 99.04 6.72 99.34 6.52L99.34 8.50C99.34 9.63 98.48 9.93 97.93 9.93C97.06 9.93 96.64 9.31 96.64 8.48ZM102.14 10.50L105.56 10.50L105.56 10.09C104.57 10.02 104.51 10.00 104.51 9.28L104.51 0.20L104.41 0.11L102.21 0.46L102.21 0.81L102.75 0.87C103.11 0.91 103.19 0.98 103.19 1.51L103.19 9.28C103.19 10.00 103.15 10.02 102.14 10.09ZM109.41 10.50L113.78 10.50C118.08 10.50 119.15 7.99 119.15 5.49C119.15 3.19 118.13 0.81 114.06 0.81L109.41 0.81L109.41 1.22C110.64 1.30 110.67 1.33 110.67 2.11L110.67 9.20C110.67 9.98 110.64 10.01 109.41 10.09ZM112.06 8.75L112.06 2.10C112.06 1.37 112.18 1.30 113.68 1.30C116.65 1.30 117.59 3.18 117.59 5.54C117.59 9.07 115.86 10.01 113.51 10.01C112.29 10.01 112.06 9.86 112.06 8.75ZM120.51 7.13C120.51 9.34 121.46 10.67 123.75 10.67C125.30 10.67 126.10 9.80 126.48 8.69L126.06 8.47C125.66 9.28 125.13 9.95 124.03 9.95C122.29 9.95 121.94 8.27 121.97 6.82L126.00 6.82C126.29 6.82 126.56 6.75 126.56 6.29C126.56 5.46 126.29 3.47 123.73 3.47C121.55 3.47 120.51 5.03 120.51 7.13ZM121.98 6.29C121.98 5.71 122.19 3.96 123.65 3.96C124.95 3.96 125.10 5.29 125.10 5.84C125.10 6.10 125.02 6.29 124.63 6.29ZM127.04 4.05C127.69 4.10 127.82 4.16 128.03 4.68C128.41 5.60 128.73 6.51 129.08 7.48L130.16 10.50L131.17 10.50L132.41 7.11C132.82 6.02 133.22 5.10 133.42 4.65C133.63 4.16 133.78 4.07 134.43 4.05L134.43 3.64L131.77 3.64L131.77 4.05L132.45 4.12C132.68 4.14 132.72 4.30 132.66 4.49C132.55 4.94 132.29 5.75 131.96 6.65L131.03 9.24L131.00 9.24L130.14 6.89C129.86 6.09 129.58 5.28 129.32 4.52C129.22 4.26 129.28 4.14 129.54 4.12L130.17 4.05L130.17 3.64L127.04 3.64ZM134.76 7.13C134.76 9.34 135.72 10.67 138.00 10.67C139.55 10.67 140.35 9.80 140.73 8.69L140.31 8.47C139.92 9.28 139.38 9.95 138.28 9.95C136.54 9.95 136.19 8.27 136.22 6.82L140.25 6.82C140.55 6.82 140.81 6.75 140.81 6.29C140.81 5.46 140.55 3.47 137.98 3.47C135.80 3.47 134.76 5.03 134.76 7.13ZM136.23 6.29C136.23 5.71 136.44 3.96 137.90 3.96C139.20 3.96 139.36 5.29 139.36 5.84C139.36 6.10 139.27 6.29 138.88 6.29ZM141.55 10.50L144.97 10.50L144.97 10.09C143.98 10.02 143.92 10.00 143.92 9.28L143.92 0.20L143.82 0.11L141.62 0.46L141.62 0.81L142.16 0.87C142.52 0.91 142.60 0.98 142.60 1.51L142.60 9.28C142.60 10.00 142.56 10.02 141.55 10.09ZM145.87 7.07C145.87 9.34 146.97 10.67 149.23 10.67C151.48 10.67 152.59 9.34 152.59 7.07C152.59 4.80 151.48 3.47 149.23 3.47C146.97 3.47 145.87 4.80 145.87 7.07ZM147.32 7.07C147.32 5.14 147.94 3.96 149.23 3.96C150.51 3.96 151.13 5.14 151.13 7.07C151.13 9.00 150.51 10.18 149.23 10.18C147.94 10.18 147.32 9.00 147.32 7.07ZM153.61 13.31L153.61 13.72L157.23 13.72L157.23 13.31C156.06 13.24 155.97 13.22 155.97 12.50L155.97 10.35C156.27 10.51 156.93 10.67 157.57 10.67C159.46 10.67 161.08 9.80 161.08 6.92C161.08 5.92 160.90 3.47 158.35 3.47C157.33 3.47 156.52 4.16 155.97 4.51L155.79 3.47L153.68 3.82L153.68 4.17L154.21 4.24C154.57 4.30 154.66 4.37 154.66 4.87L154.66 12.50C154.66 13.22 154.59 13.24 153.61 13.31ZM155.97 8.30L155.97 6.01C155.97 5.66 156.03 5.46 156.16 5.21C156.48 4.56 157.08 4.23 157.82 4.23C158.38 4.23 159.63 4.59 159.63 7C159.63 9.06 158.98 10.18 157.58 10.18C156.86 10.18 156.30 9.80 156.07 9.16C155.99 8.90 155.97 8.62 155.97 8.30ZM163.06 1.34C163.06 1.85 163.41 2.20 163.91 2.20C164.42 2.20 164.77 1.85 164.77 1.34C164.77 0.84 164.42 0.49 163.91 0.49C163.41 0.49 163.06 0.84 163.06 1.34ZM162.22 10.50L165.63 10.50L165.63 10.09C164.64 10.02 164.58 10.00 164.58 9.28L164.58 3.56L164.49 3.47L162.29 3.82L162.29 4.17L162.82 4.24C163.18 4.30 163.27 4.37 163.27 4.87L163.27 9.28C163.27 10.00 163.23 10.02 162.22 10.09ZM166.29 10.50L169.71 10.50L169.71 10.09C168.71 10.02 168.66 10.00 168.66 9.28L168.66 6.01C168.66 5.66 168.69 5.46 168.80 5.24C169.09 4.69 169.72 4.23 170.46 4.23C171.42 4.23 171.93 4.76 171.93 5.98L171.93 9.28C171.93 10.00 171.89 10.02 170.88 10.09L170.88 10.50L174.30 10.50L174.30 10.09C173.31 10.02 173.25 10.00 173.25 9.28L173.25 5.70C173.25 4.28 172.48 3.47 171.19 3.47C170.16 3.47 169.51 3.98 168.64 4.54L168.45 3.47L166.36 3.82L166.36 4.17L166.89 4.24C167.26 4.30 167.34 4.37 167.34 4.87L167.34 9.28C167.34 10.00 167.30 10.02 166.29 10.09ZM175.10 11.84C175.10 13.26 176.50 13.89 178.12 13.89C178.96 13.89 179.84 13.72 180.52 13.31C181.16 12.92 181.62 12.26 181.62 11.40C181.62 9.88 180.42 9.35 178.92 9.35L177.80 9.35C176.79 9.35 176.64 9.02 176.64 8.75C176.64 8.34 177.17 8.12 177.35 8.06C177.62 8.09 177.91 8.11 178.07 8.11C179.40 8.11 180.89 7.52 180.89 5.82C180.89 5.24 180.71 4.75 180.47 4.51L181.58 4.34L181.86 3.46L181.75 3.33L179.96 3.91C179.56 3.64 178.79 3.47 178.15 3.47C176.01 3.47 175.25 4.79 175.25 5.82C175.25 7.14 176.12 7.74 176.76 7.91L176.76 7.94C176.01 8.23 175.48 8.64 175.48 9.18C175.48 9.67 176.04 10.21 176.71 10.28L176.71 10.30C176.11 10.50 175.10 10.84 175.10 11.84ZM176.43 11.77C176.43 11.30 176.57 10.95 176.86 10.72C177.17 10.49 177.63 10.40 178.30 10.40C179.54 10.40 180.45 10.70 180.45 11.75C180.45 12.87 179.44 13.40 178.44 13.40C177.25 13.40 176.43 12.78 176.43 11.77ZM176.68 5.82C176.68 4.44 177.41 3.96 178.15 3.96C178.84 3.96 179.55 4.47 179.55 5.82C179.55 7 178.93 7.62 178.12 7.62C177.34 7.62 176.68 7 176.68 5.82Z"></path></g><!----><!----></svg>