<svg data-v-423bf9ae="" xmlns="http://www.w3.org/2000/svg" viewBox="0 0 21228 20456" class="iconLeftSlogan"><!----><!----><!----><g data-v-423bf9ae="" id="1a36ce44-4400-4f1a-9267-850984833bfe" fill="#000000" transform="matrix(4.297994257596313,0,0,4.297994257596313,20474.157882772848,-0.17192021833139037)"><path d="M4.65 0.70L1.41 9.45L0.21 9.91L0.31 10.50L3.50 10.50L3.60 9.91L2.16 9.45L2.95 7.20L6.62 7.20L7.41 9.45L6.20 9.91L6.30 10.50L10.11 10.50L10.22 9.91L9.02 9.45L5.87 0.46ZM5.00 1.78L5.00 2.49L6.41 6.61L3.18 6.61ZM16.90 0.70C16.90 0.70 16.91 0.04 16.14 0.04C15.68 0.04 15.06 0.14 14.74 0.20L14.74 0.70L15.58 0.70L15.58 3.81L15.90 5.28C15.60 4.45 14.81 3.81 13.75 3.81C11.83 3.81 10.82 5.46 10.82 7.53C10.82 9.62 11.86 10.65 13.89 10.65C14.57 10.65 15.29 10.28 15.61 9.60C15.81 10.39 16.41 10.65 16.90 10.65C17.16 10.65 17.44 10.61 17.67 10.50L17.67 10.00C17.23 10.00 16.90 9.79 16.90 9.35ZM14.08 10.12C12.91 10.12 12.28 9.24 12.28 7.56C12.28 5.88 12.74 4.47 13.94 4.47C14.57 4.47 15.58 5.11 15.58 6.92L15.58 7.77C15.58 9.37 14.78 10.12 14.08 10.12ZM20.96 10.65C21.64 10.65 22.36 10.28 22.68 9.60C22.88 10.39 23.42 10.65 23.91 10.65C24.18 10.65 24.46 10.61 24.68 10.50L24.68 10.00C24.25 10.00 23.91 9.79 23.91 9.35L23.91 3.96L23.42 3.81L22.60 4.03C22.25 3.85 21.80 3.81 21.38 3.81C19.61 3.81 18.17 4.90 18.17 7.57C18.17 9.83 19.59 10.65 20.96 10.65ZM22.60 7.77C22.60 9.37 21.80 10.00 21.10 10.00C20.33 10.00 19.53 9.45 19.53 7.50C19.53 5.08 20.55 4.33 21.45 4.33C21.87 4.33 22.15 4.40 22.60 4.65ZM29.43 3.81C28.69 3.81 27.82 4.38 27.52 5.43L27.52 4.47C27.52 4.47 27.54 3.81 26.77 3.81C26.31 3.81 25.69 3.91 25.37 3.96L25.37 4.47L26.21 4.47L26.21 10.50L27.52 10.50L27.52 7.39C27.52 5.42 28.39 4.47 29.09 4.47C29.75 4.47 30.25 5.05 30.25 5.89L30.25 10.50L31.57 10.50L31.57 7C31.57 5.25 32.42 4.47 33.11 4.47C33.89 4.47 34.29 5.18 34.29 6.20L34.29 9.38C34.29 10.36 34.97 10.65 35.49 10.65C35.87 10.65 36.23 10.60 36.43 10.50L36.43 10.00C35.99 10.00 35.60 9.79 35.60 9.35L35.60 6.31C35.60 4.83 35 3.81 33.42 3.81C32.63 3.81 31.74 4.38 31.43 5.40C31.23 4.37 30.60 3.81 29.43 3.81ZM38.46 4.59L38.93 0.70L38.54 0.46L37.60 0.70L38.07 4.59ZM42.67 4.33C43.06 4.33 43.39 4.40 43.64 4.49L44.07 5.64C44.46 5.64 44.79 5.32 44.79 4.94C44.79 4.16 43.78 3.81 42.74 3.81C41.22 3.81 40.22 4.54 40.22 5.67C40.22 6.78 41.06 7.25 42 7.69C42.78 8.04 43.76 8.37 43.76 9.06C43.76 9.73 43.12 10.12 42.22 10.12C41.93 10.12 41.45 9.98 41.19 9.81L40.85 8.86C40.49 8.86 40.18 9.13 40.18 9.49C40.18 10.29 40.92 10.65 42.34 10.65C43.96 10.65 44.88 9.88 44.88 8.69C44.88 7.46 43.82 6.99 42.83 6.57C42.17 6.29 41.33 5.94 41.33 5.19C41.33 4.72 41.85 4.33 42.67 4.33ZM52.15 1.29L53.42 1.29C54.94 1.29 55.52 2.31 55.52 3.71C55.52 4.87 54.71 6.02 53.40 6.02L52.74 6.02L52.74 6.61L53.35 6.61C55.27 6.61 56.97 5.89 56.97 3.71C56.97 1.89 55.92 0.70 53.89 0.70L49.55 0.70L49.43 1.29L50.67 1.75L50.67 9.45L49.46 9.91L49.56 10.50L53.26 10.50L53.37 9.91L52.15 9.45ZM63.95 5.78C63.95 4.34 62.86 3.81 61.24 3.81C59.28 3.81 57.88 5.07 57.88 7.22C57.88 9.30 59.04 10.65 61.52 10.65C62.43 10.65 63.32 10.37 63.92 9.83L63.60 9.37C63.03 9.73 62.34 10.00 61.60 10.00C60.33 10.00 59.61 9.14 59.42 7.87C61.78 7.87 63.95 7.49 63.95 5.78ZM59.36 7.11C59.36 5.52 59.98 4.33 61.18 4.33C62.15 4.33 62.64 4.73 62.64 5.61C62.64 6.65 61.19 7.36 59.36 7.38ZM65.72 4.47L65.72 10.50L67.03 10.50L67.03 7.39C67.03 5.42 68.15 4.47 68.82 4.47L69.22 5.36C69.66 5.36 70.01 5.04 70.01 4.62C70.01 4.20 69.75 3.81 69.02 3.81C68.29 3.81 67.40 4.42 67.03 5.43L67.03 4.66C67.03 4.66 67.05 3.81 66.28 3.81C65.81 3.81 65.25 3.91 64.93 3.96L64.93 4.47ZM73.21 4.33C73.60 4.33 73.92 4.40 74.17 4.49L74.61 5.64C75.00 5.64 75.32 5.32 75.32 4.94C75.32 4.16 74.31 3.81 73.28 3.81C71.75 3.81 70.76 4.54 70.76 5.67C70.76 6.78 71.60 7.25 72.53 7.69C73.32 8.04 74.30 8.37 74.30 9.06C74.30 9.73 73.65 10.12 72.76 10.12C72.46 10.12 71.99 9.98 71.72 9.81L71.39 8.86C71.02 8.86 70.71 9.13 70.71 9.49C70.71 10.29 71.46 10.65 72.87 10.65C74.49 10.65 75.42 9.88 75.42 8.69C75.42 7.46 74.35 6.99 73.36 6.57C72.70 6.29 71.86 5.94 71.86 5.19C71.86 4.72 72.38 4.33 73.21 4.33ZM79.83 3.81C77.76 3.81 76.54 5.12 76.54 7.22C76.54 9.32 77.62 10.65 79.83 10.65C82.05 10.65 83.12 9.38 83.12 7.22C83.12 5.07 81.90 3.81 79.83 3.81ZM79.83 4.33C81.00 4.33 81.76 5.39 81.76 7.18C81.76 8.96 81.02 10.14 79.83 10.14C78.64 10.14 77.90 8.95 77.90 7.18C77.90 5.42 78.67 4.33 79.83 4.33ZM86.32 4.47C86.32 4.47 86.34 3.81 85.57 3.81C85.11 3.81 84.49 3.91 84.17 3.96L84.17 4.47L85.01 4.47L85.01 10.50L86.32 10.50L86.32 7.39C86.32 5.32 87.36 4.47 88.07 4.47C88.77 4.47 89.21 5.05 89.21 5.95L89.21 9.38C89.21 10.36 89.89 10.65 90.41 10.65C90.79 10.65 91.15 10.60 91.35 10.50L91.35 10.00C90.92 10.00 90.52 9.79 90.52 9.35L90.52 6.30C90.52 4.76 89.88 3.81 88.35 3.81C87.63 3.81 86.67 4.45 86.32 5.43ZM95.06 10.65C95.75 10.65 96.46 10.28 96.78 9.60C96.98 10.39 97.52 10.65 98.01 10.65C98.28 10.65 98.56 10.61 98.78 10.50L98.78 10.00C98.35 10.00 98.01 9.79 98.01 9.35L98.01 3.96L97.52 3.81L96.70 4.03C96.35 3.85 95.90 3.81 95.48 3.81C93.72 3.81 92.27 4.90 92.27 7.57C92.27 9.83 93.69 10.65 95.06 10.65ZM96.70 7.77C96.70 9.37 95.90 10.00 95.20 10.00C94.43 10.00 93.63 9.45 93.63 7.50C93.63 5.08 94.65 4.33 95.55 4.33C95.97 4.33 96.25 4.40 96.70 4.65ZM100.38 0.70L100.38 9.38C100.38 10.36 101.07 10.65 101.58 10.65C101.96 10.65 102.33 10.60 102.52 10.50L102.52 10.00C102.09 10.00 101.70 9.79 101.70 9.35L101.70 0.70C101.70 0.70 101.71 0.04 100.94 0.04C100.48 0.04 99.86 0.14 99.54 0.20L99.54 0.70ZM110.99 1.29C113.37 1.29 114.46 3.12 114.46 5.50C114.46 7.88 113.37 9.91 110.99 9.91L109.77 9.91L109.77 1.29ZM110.95 10.50C114.46 10.50 116.10 8.25 116.10 5.53C116.10 2.81 114.49 0.70 110.99 0.70L107.17 0.70L107.07 1.29L108.29 1.75L108.29 9.45L107.09 9.91L107.18 10.50ZM123.09 5.78C123.09 4.34 122.00 3.81 120.37 3.81C118.41 3.81 117.01 5.07 117.01 7.22C117.01 9.30 118.17 10.65 120.65 10.65C121.56 10.65 122.46 10.37 123.06 9.83L122.74 9.37C122.16 9.73 121.48 10.00 120.74 10.00C119.46 10.00 118.75 9.14 118.55 7.87C120.92 7.87 123.09 7.49 123.09 5.78ZM118.50 7.11C118.50 5.52 119.11 4.33 120.32 4.33C121.28 4.33 121.77 4.73 121.77 5.61C121.77 6.65 120.33 7.36 118.50 7.38ZM127.88 3.81C127.44 3.81 127.11 4.16 127.11 4.59C127.11 5.03 127.44 5.36 127.88 5.36L128.25 4.80C128.93 5.18 129.18 6.47 129.18 7.43C129.18 9.45 128.06 10.12 127.36 10.12C126.46 10.12 125.75 9.63 125.75 8.39L125.75 4.47C125.75 4.47 125.76 3.81 124.99 3.81C124.53 3.81 123.97 3.91 123.65 3.96L123.65 4.47L124.43 4.47L124.43 8.26C124.43 9.56 125.36 10.65 126.88 10.65C128.41 10.65 129.84 10.18 129.84 7.24C129.84 6.30 129.35 3.81 127.88 3.81ZM136.96 5.78C136.96 4.34 135.87 3.81 134.25 3.81C132.29 3.81 130.89 5.07 130.89 7.22C130.89 9.30 132.05 10.65 134.53 10.65C135.44 10.65 136.33 10.37 136.93 9.83L136.61 9.37C136.04 9.73 135.35 10.00 134.61 10.00C133.34 10.00 132.62 9.14 132.43 7.87C134.79 7.87 136.96 7.49 136.96 5.78ZM132.37 7.11C132.37 5.52 132.99 4.33 134.19 4.33C135.16 4.33 135.65 4.73 135.65 5.61C135.65 6.65 134.20 7.36 132.37 7.38ZM138.78 0.70L138.78 9.38C138.78 10.36 139.47 10.65 139.99 10.65C140.36 10.65 140.73 10.60 140.92 10.50L140.92 10.00C140.49 10.00 140.10 9.79 140.10 9.35L140.10 0.70C140.10 0.70 140.11 0.04 139.34 0.04C138.88 0.04 138.26 0.14 137.94 0.20L137.94 0.70ZM145.33 3.81C143.26 3.81 142.04 5.12 142.04 7.22C142.04 9.32 143.12 10.65 145.33 10.65C147.56 10.65 148.62 9.38 148.62 7.22C148.62 5.07 147.41 3.81 145.33 3.81ZM145.33 4.33C146.51 4.33 147.27 5.39 147.27 7.18C147.27 8.96 146.52 10.14 145.33 10.14C144.14 10.14 143.40 8.95 143.40 7.18C143.40 5.42 144.17 4.33 145.33 4.33ZM151.37 4.66C151.37 4.66 151.38 3.81 150.61 3.81C150.15 3.81 149.53 3.91 149.21 3.96L149.21 4.47L150.05 4.47L150.05 12.73C150.05 13.71 150.74 14 151.26 14C151.63 14 152.00 13.94 152.19 13.85L152.19 13.34C151.76 13.34 151.37 13.13 151.37 12.70L151.37 7.39C151.37 5.42 152.54 4.47 153.22 4.47C154.04 4.47 154.64 4.86 154.64 6.65C154.64 8.55 153.51 9.98 152.40 9.98L151.82 9.98L151.82 10.50L152.43 10.50C154.57 10.50 156.13 8.83 156.13 6.75C156.13 4.47 154.92 3.81 153.52 3.81C152.80 3.81 151.73 4.42 151.37 5.43ZM158.70 0.74C158.28 0.74 157.95 1.08 157.95 1.50C157.95 1.92 158.28 2.25 158.70 2.25C159.11 2.25 159.46 1.92 159.46 1.50C159.46 1.08 159.11 0.74 158.70 0.74ZM159.40 4.47C159.40 4.47 159.42 3.81 158.65 3.81C158.19 3.81 157.57 3.91 157.25 3.96L157.25 4.47L158.09 4.47L158.09 10.50L159.40 10.50ZM163.23 4.47C163.23 4.47 163.24 3.81 162.47 3.81C162.01 3.81 161.39 3.91 161.07 3.96L161.07 4.47L161.91 4.47L161.91 10.50L163.23 10.50L163.23 7.39C163.23 5.32 164.26 4.47 164.98 4.47C165.68 4.47 166.11 5.05 166.11 5.95L166.11 9.38C166.11 10.36 166.80 10.65 167.31 10.65C167.69 10.65 168.06 10.60 168.25 10.50L168.25 10.00C167.82 10.00 167.43 9.79 167.43 9.35L167.43 6.30C167.43 4.76 166.78 3.81 165.26 3.81C164.53 3.81 163.58 4.45 163.23 5.43ZM170.69 7.53C170.69 5.42 171.49 4.33 172.66 4.33C173.15 4.33 173.60 4.47 173.99 4.59L173.99 7.07C173.99 9.04 172.96 9.84 172.26 9.84C171.42 9.84 170.69 9.34 170.69 7.53ZM175.31 3.96L174.82 3.81L173.99 4.03C173.64 3.89 173.05 3.81 172.63 3.81C170.51 3.81 169.23 5.26 169.23 7.60C169.23 9.65 170.28 10.50 171.96 10.50C173.12 10.50 173.95 9.74 174.27 8.75L173.99 10.35L173.99 11.40C173.99 12.98 173.11 13.36 172.13 13.36C171.09 13.36 170.53 12.73 170.53 12.15C170.53 11.80 170.77 11.40 171.19 11.17L170.91 10.75C170.32 10.96 169.62 11.52 169.62 12.24C169.62 13.40 170.80 14 172.13 14C173.80 14 175.31 13.36 175.31 11.24Z"></path></g><defs data-v-423bf9ae=""><linearGradient data-v-423bf9ae="" gradientTransform="rotate(25)" id="9abc02cc-4c0f-4372-8533-03dd55cecc9b" x1="0%" y1="0%" x2="100%" y2="0%"><stop data-v-423bf9ae="" offset="0%" style="stop-color: rgb(180, 55, 61); stop-opacity: 1;"></stop><stop data-v-423bf9ae="" offset="100%" style="stop-color: rgb(178, 58, 203); stop-opacity: 1;"></stop></linearGradient></defs><g data-v-423bf9ae="" id="75a2f029-4f1f-4ca9-927d-72a671d890fd" transform="matrix(15.0757568359375,0,0,15.0757568359375,-1001.2713297892369,-1196.6943067807715)" stroke="none" fill="url(#9abc02cc-4c0f-4372-8533-03dd55cecc9b)"><path d="M733.864 375.851c-24.867-9.086-50.802-.683-52.13-.238-4.662 1.554-7.176 6.583-5.634 11.251 1.542 4.666 6.582 7.2 11.25 5.672.311-.103 31.13-9.926 51.771 6.372a8.906 8.906 0 0 0 5.524 1.916 8.913 8.913 0 0 0 8.539-11.477c-.022-.081-2.366-8.277-1.16-18.065 1.556-12.615 8.285-21.872 20.003-27.514a8.915 8.915 0 1 0-7.733-16.065c-17.291 8.325-27.653 22.64-29.966 41.396a63.88 63.88 0 0 0-.464 6.752zM657.691 307.979c-4.659 1.553-7.17 6.579-5.634 11.243 1.537 4.666 6.569 7.208 11.245 5.681.232-.076 23.521-7.463 38.918 4.692a8.913 8.913 0 0 0 10.536.376 8.917 8.917 0 0 0 3.528-9.936c-.018-.059-1.732-6.23-.848-13.419 1.155-9.359 5.949-15.947 14.658-20.14a8.917 8.917 0 0 0-7.734-16.067c-17.922 8.63-23.997 23.797-24.942 36.936-19.379-5.968-38.695.29-39.727.634zM663.007 257.968c.107-.035 10.867-3.381 17.545 1.892a8.91 8.91 0 0 0 10.536.376 8.917 8.917 0 0 0 3.528-9.936c-.006-.024-.695-2.662-.323-5.685.463-3.748 2.238-6.175 5.761-7.872a8.912 8.912 0 0 0 4.165-11.9 8.913 8.913 0 0 0-11.898-4.165c-9.396 4.523-13.686 11.844-15.25 18.94-10.152-1.661-19.102 1.233-19.647 1.416-4.67 1.557-7.223 6.615-5.666 11.286 1.556 4.672 6.576 7.204 11.249 5.648z"></path><path d="M1369.98 493.777c-34.17-80.786-83.084-153.336-145.385-215.637-62.301-62.3-134.852-111.215-215.638-145.384-83.644-35.378-172.49-53.317-264.07-53.317-91.581 0-180.427 17.938-264.071 53.317-80.785 34.169-153.336 83.083-215.636 145.384-62.3 62.301-111.215 134.852-145.384 215.637-35.378 83.644-53.317 172.49-53.317 264.071 0 91.58 17.938 180.427 53.317 264.07 34.169 80.786 83.084 153.337 145.384 215.638 62.301 62.301 134.852 111.215 215.637 145.385 83.644 35.378 172.49 53.316 264.071 53.316 91.58 0 180.427-17.938 264.07-53.316 80.786-34.17 153.337-83.084 215.638-145.385s111.215-134.852 145.385-215.638c35.378-83.644 53.316-172.49 53.316-264.07 0-91.581-17.939-180.427-53.317-264.071zM744.888 99.438c300.656 0 554.892 202.566 633.395 478.387l-240.808-226.091a9.999 9.999 0 0 0-11.74-1.429L751.922 560.179l-337.141-190.12a10.003 10.003 0 0 0-9.451-.201L136.163 506.944C235.018 267.992 470.636 99.438 744.888 99.438zm0 1316.819c-54 0-106.5-6.542-156.755-18.862 19.04-1.6 30.836-5.809 42.319-9.91 13.559-4.843 26.367-9.417 52.633-9.417s39.073 4.574 52.633 9.417c14.567 5.203 29.63 10.583 59.361 10.583s44.793-5.38 59.359-10.583c13.56-4.843 26.367-9.417 52.633-9.417 19.446 0 31.514 2.508 41.974 5.775-64.303 21.023-132.923 32.414-204.157 32.414zm234.67-43.235c-4.604-1.339-8.834-2.84-13.126-4.372-14.567-5.203-29.63-10.583-59.361-10.583-29.73 0-44.793 5.38-59.359 10.583-13.56 4.843-26.367 9.417-52.633 9.417-26.267 0-39.074-4.574-52.634-9.417-14.567-5.203-29.629-10.583-59.36-10.583s-44.793 5.38-59.36 10.583c-13.559 4.843-26.367 9.417-52.632 9.417-26.266 0-39.074-4.574-52.633-9.417-11.55-4.126-23.419-8.359-42.658-9.938a658.06 658.06 0 0 1-96.276-53.393c10.717-2.044 18.909-4.966 26.943-7.836 13.559-4.843 26.366-9.417 52.631-9.417 26.266 0 39.074 4.574 52.633 9.417 14.567 5.203 29.63 10.583 59.36 10.583s44.793-5.38 59.36-10.583c13.559-4.843 26.367-9.417 52.633-9.417s39.073 4.574 52.633 9.417c14.567 5.203 29.63 10.583 59.361 10.583s44.793-5.38 59.359-10.583c13.56-4.843 26.367-9.417 52.633-9.417 26.267 0 39.075 4.574 52.635 9.417 14.566 5.203 29.63 10.583 59.36 10.583 29.732 0 44.797-5.38 59.364-10.583 13.561-4.843 26.369-9.417 52.637-9.417 1.261 0 2.485.012 3.686.032-47.316 34.884-99.449 63.586-155.196 84.924zm178.716-103.097c-7.595-1.148-16.435-1.857-27.208-1.857-29.732 0-44.796 5.38-59.363 10.582-13.561 4.844-26.369 9.418-52.638 9.418-26.267 0-39.074-4.574-52.634-9.417-14.567-5.203-29.63-10.583-59.361-10.583-29.73 0-44.793 5.38-59.359 10.583-13.56 4.843-26.367 9.417-52.633 9.417-26.267 0-39.074-4.574-52.634-9.417-14.567-5.203-29.629-10.583-59.36-10.583s-44.793 5.38-59.36 10.583c-13.559 4.843-26.367 9.417-52.632 9.417-26.266 0-39.074-4.574-52.633-9.417-14.566-5.203-29.629-10.583-59.36-10.583-29.729 0-44.792 5.38-59.358 10.583-12.166 4.346-23.734 8.472-44.954 9.274a663.975 663.975 0 0 1-97.895-88.561c12.866 1.698 21.693 4.847 30.858 8.12 14.566 5.203 29.629 10.583 59.359 10.583 29.729 0 44.792-5.38 59.358-10.583 13.559-4.843 26.366-9.417 52.631-9.417 26.266 0 39.074 4.574 52.633 9.417 14.567 5.203 29.63 10.583 59.36 10.583s44.793-5.38 59.36-10.583c13.559-4.843 26.367-9.417 52.633-9.417s39.073 4.574 52.633 9.417c14.567 5.203 29.63 10.583 59.361 10.583s44.793-5.38 59.359-10.583c13.56-4.843 26.367-9.417 52.633-9.417 26.267 0 39.075 4.574 52.635 9.417 14.566 5.203 29.63 10.583 59.36 10.583 29.732 0 44.797-5.38 59.364-10.583 13.561-4.843 26.369-9.417 52.637-9.417s39.076 4.574 52.637 9.417c9.532 3.404 19.298 6.877 33.228 8.876a664.111 664.111 0 0 1-58.657 53.565zm75.964-72.047c-20.494-.905-31.863-4.961-43.809-9.228-14.567-5.203-29.631-10.583-59.363-10.583s-44.796 5.38-59.363 10.582c-13.561 4.844-26.369 9.418-52.638 9.418-26.267 0-39.074-4.574-52.634-9.417-14.567-5.203-29.63-10.583-59.361-10.583-29.73 0-44.793 5.38-59.359 10.583-13.56 4.843-26.367 9.417-52.633 9.417-26.267 0-39.074-4.574-52.634-9.417-14.567-5.203-29.629-10.583-59.36-10.583s-44.793 5.38-59.36 10.583c-13.559 4.843-26.367 9.417-52.632 9.417-26.266 0-39.074-4.574-52.633-9.417-14.566-5.203-29.629-10.583-59.36-10.583-29.729 0-44.792 5.38-59.358 10.583-13.559 4.843-26.366 9.417-52.631 9.417-26.266 0-39.073-4.574-52.632-9.417-14.016-5.006-28.498-10.174-56.056-10.558a662.377 662.377 0 0 1-47.319-64.468l1110.718-4.94a662.533 662.533 0 0 1-67.583 89.194zM789.377 942.741l18.327 28.759H696.296l18.855-29.586a8.174 8.174 0 0 0 3.575.827h70.651zm-64.28-16.433L752 884.094l26.904 42.214h-53.807zm93.081 61.626l65.395 102.61-30.478.136h-.03l-31.256.139a8.187 8.187 0 0 0-5.067-3.727c-24.127-5.934-40.886-21.186-49.812-45.334-6.933-18.758-6.395-36.109-6.389-36.268a8.216 8.216 0 0 0-16.262-1.968c-7.612 37.328-64.715 84.732-65.291 85.207a8.159 8.159 0 0 0-2.153 2.735l-57.155.254 66.143-103.784h132.355zm-66.571 102.746v.451l-50.772.226c12.831-11.862 33.577-32.764 47.164-55.196a115.765 115.765 0 0 0 3.311 10.732c6.948 19.123 18.346 34.007 33.554 44.091l-13.256.059v-.362h-20.001zm562.398-2.05l-70.725.314V857.977l59.02 60.46 14.313-13.971-73.332-75.122v-82.362l57.317 58.714 14.311-13.971-71.628-73.374V634.24l57.317 58.714 14.311-13.971-75.393-77.23a9.997 9.997 0 0 0-14.397.089l-73.551 77.23 14.482 13.793 57.229-60.093v83.742l-71.712 75.3 14.482 13.793 57.229-60.093v85.529l-70.01 73.512 14.482 13.793 55.527-58.304v228.989l-224.188.997V857.976l59.022 60.461 14.311-13.971-73.333-75.121V746.98l57.316 58.716 14.313-13.971-71.629-73.377v-84.11l57.316 58.716 14.313-13.971-75.391-77.23a9.922 9.922 0 0 0-7.218-3.015 9.997 9.997 0 0 0-7.18 3.104l-73.553 77.23 14.482 13.793 57.229-60.091v83.742l-71.712 75.298 14.482 13.793 57.229-60.091v85.527l-70.01 73.512 14.482 13.793 55.527-58.305v230.076l-76.088.339-141.254-221.653 30.459-47.793a8.218 8.218 0 0 0-13.858-8.832L752 853.517l-26.345-41.337a8.217 8.217 0 1 0-13.858 8.832l30.459 47.793-141.387 221.85c-.237.372-.43.758-.601 1.15l-69.854.311v-234.14l59.021 60.461 14.312-13.971-73.333-75.121V746.98l57.316 58.715 14.312-13.971-71.628-73.376v-84.111l57.316 58.715 14.312-13.971-75.391-77.23a9.997 9.997 0 0 0-14.397.089l-73.553 77.23 14.482 13.793 57.23-60.091v83.743l-71.712 75.298 14.482 13.793 57.23-60.091v85.528l-70.01 73.512 14.482 13.793 55.528-58.306v232.162l-235.936 1.049V857.977l59.02 60.46 14.312-13.971-73.332-75.12v-82.364l57.316 58.714 14.312-13.971-71.628-73.375v-84.111l57.316 58.714 14.312-13.971-75.392-77.23a10 10 0 0 0-7.156-3.015h-.062a9.997 9.997 0 0 0-7.179 3.104l-73.552 77.23 14.483 13.793 57.23-60.093v83.742l-71.713 75.3 14.483 13.793 57.23-60.093v85.529l-70.01 73.512 14.482 13.793 55.528-58.305v233.299l-75.737.337c-58.583-98.385-92.264-213.247-92.264-335.831 0-78.219 13.722-153.291 38.865-222.949l284.284-144.784 337.371 190.249a9.997 9.997 0 0 0 9.808.009l372.324-209.038 258.289 242.503c10.385 46.365 15.877 94.558 15.877 144.01.003 120.494-32.542 233.525-89.289 330.783z"></path></g><!----><g data-v-423bf9ae="" id="0b441a3e-350c-44a4-8c65-e3c6094b9ffb" fill="#000000" transform="matrix(1.8055570013019966,0,0,1.8055570013019966,20473.21753904023,49.744436268817125)"><path d="M1.02 6.97L1.02 5.88L4.24 5.88L4.24 5.88Q6.06 5.88 6.90 6.75L6.90 6.75L6.90 6.75Q7.74 7.62 7.74 9.52L7.74 9.52L7.74 12.04L7.74 12.04Q7.74 13.94 6.90 14.81L6.90 14.81L6.90 14.81Q6.06 15.68 4.24 15.68L4.24 15.68L1.02 15.68L1.02 14.57L1.86 14.57L1.86 6.97L1.02 6.97ZM3.04 14.59L4.07 14.59L4.07 14.59Q4.72 14.59 5.19 14.46L5.19 14.46L5.19 14.46Q5.66 14.34 5.96 14.04L5.96 14.04L5.96 14.04Q6.27 13.73 6.42 13.23L6.42 13.23L6.42 13.23Q6.57 12.73 6.57 11.96L6.57 11.96L6.57 9.60L6.57 9.60Q6.57 8.83 6.42 8.33L6.42 8.33L6.42 8.33Q6.27 7.83 5.96 7.53L5.96 7.53L5.96 7.53Q5.66 7.22 5.19 7.10L5.19 7.10L5.19 7.10Q4.72 6.97 4.07 6.97L4.07 6.97L3.04 6.97L3.04 14.59ZM16.88 15.68L16.88 5.88L22.82 5.88L22.82 6.97L18.06 6.97L18.06 10.22L22.74 10.22L22.74 11.31L18.06 11.31L18.06 14.59L22.90 14.59L22.90 15.68L16.88 15.68ZM34.29 15.68L31.51 5.88L32.77 5.88L35.34 15.18L35.50 15.18L38.07 5.88L39.33 5.88L36.55 15.68L34.29 15.68ZM48.02 15.68L48.02 5.88L53.96 5.88L53.96 6.97L49.20 6.97L49.20 10.22L53.87 10.22L53.87 11.31L49.20 11.31L49.20 14.59L54.04 14.59L54.04 15.68L48.02 15.68ZM63.49 15.68L63.49 5.88L64.67 5.88L64.67 14.59L69.79 14.59L69.79 15.68L63.49 15.68ZM78.68 11.87L78.68 9.69L78.68 9.69Q78.68 7.78 79.59 6.73L79.59 6.73L79.59 6.73Q80.50 5.68 82.12 5.68L82.12 5.68L82.12 5.68Q83.75 5.68 84.66 6.73L84.66 6.73L84.66 6.73Q85.57 7.78 85.57 9.69L85.57 9.69L85.57 11.87L85.57 11.87Q85.57 13.83 84.66 14.85L84.66 14.85L84.66 14.85Q83.75 15.88 82.12 15.88L82.12 15.88L82.12 15.88Q80.50 15.88 79.59 14.85L79.59 14.85L79.59 14.85Q78.68 13.83 78.68 11.87L78.68 11.87ZM82.12 14.78L82.12 14.78L82.12 14.78Q83.26 14.78 83.83 14.01L83.83 14.01L83.83 14.01Q84.39 13.23 84.39 11.79L84.39 11.79L84.39 9.77L84.39 9.77Q84.39 8.43 83.83 7.60L83.83 7.60L83.83 7.60Q83.26 6.78 82.12 6.78L82.12 6.78L82.12 6.78Q80.99 6.78 80.42 7.60L80.42 7.60L80.42 7.60Q79.86 8.43 79.86 9.77L79.86 9.77L79.86 11.79L79.86 11.79Q79.86 13.23 80.42 14.01L80.42 14.01L80.42 14.01Q80.99 14.78 82.12 14.78ZM98.10 11.65L95.77 11.65L95.77 15.68L94.60 15.68L94.60 5.88L98.10 5.88L98.10 5.88Q98.85 5.88 99.41 6.10L99.41 6.10L99.41 6.10Q99.97 6.31 100.34 6.68L100.34 6.68L100.34 6.68Q100.72 7.04 100.91 7.53L100.91 7.53L100.91 7.53Q101.09 8.01 101.09 8.54L101.09 8.54L101.09 8.96L101.09 8.96Q101.09 9.49 100.91 9.98L100.91 9.98L100.91 9.98Q100.72 10.47 100.34 10.84L100.34 10.84L100.34 10.84Q99.96 11.21 99.40 11.43L99.40 11.43L99.40 11.43Q98.84 11.65 98.10 11.65L98.10 11.65ZM95.77 6.97L95.77 10.56L97.96 10.56L97.96 10.56Q99.92 10.56 99.92 8.88L99.92 8.88L99.92 8.62L99.92 8.62Q99.92 7.88 99.44 7.43L99.44 7.43L99.44 7.43Q98.95 6.97 97.96 6.97L97.96 6.97L95.77 6.97ZM110.15 6.97L110.15 5.88L116.37 5.88L116.37 6.97L113.85 6.97L113.85 14.59L116.37 14.59L116.37 15.68L110.15 15.68L110.15 14.59L112.67 14.59L112.67 6.97L110.15 6.97ZM127.92 5.88L130.75 15.18L130.91 15.18L130.91 5.88L132.09 5.88L132.09 15.68L129.74 15.68L126.91 6.38L126.74 6.38L126.74 15.68L125.57 15.68L125.57 5.88L127.92 5.88ZM143.46 12.07L143.46 10.98L147.83 10.98L147.83 15.68L146.73 15.68L146.73 14.50L146.57 14.50L146.57 14.50Q146.33 15.12 145.73 15.50L145.73 15.50L145.73 15.50Q145.12 15.88 144.33 15.88L144.33 15.88L144.33 15.88Q142.74 15.88 141.84 14.85L141.84 14.85L141.84 14.85Q140.94 13.83 140.94 11.87L140.94 11.87L140.94 9.69L140.94 9.69Q140.94 7.78 141.85 6.73L141.85 6.73L141.85 6.73Q142.76 5.68 144.38 5.68L144.38 5.68L144.38 5.68Q145.22 5.68 145.87 5.96L145.87 5.96L145.87 5.96Q146.51 6.23 146.94 6.71L146.94 6.71L146.94 6.71Q147.38 7.20 147.60 7.85L147.60 7.85L147.60 7.85Q147.83 8.50 147.83 9.24L147.83 9.24L147.83 9.41L146.65 9.41L146.65 9.24L146.65 9.24Q146.65 8.76 146.52 8.32L146.52 8.32L146.52 8.32Q146.38 7.87 146.11 7.53L146.11 7.53L146.11 7.53Q145.84 7.18 145.41 6.98L145.41 6.98L145.41 6.98Q144.98 6.78 144.38 6.78L144.38 6.78L144.38 6.78Q143.25 6.78 142.68 7.60L142.68 7.60L142.68 7.60Q142.11 8.43 142.11 9.77L142.11 9.77L142.11 11.79L142.11 11.79Q142.11 13.23 142.68 14.01L142.68 14.01L142.68 14.01Q143.25 14.78 144.41 14.78L144.41 14.78L144.41 14.78Q145.46 14.78 146.06 14.11L146.06 14.11L146.06 14.11Q146.65 13.44 146.65 12.24L146.65 12.24L146.65 12.07L143.46 12.07ZM172.42 6.97L172.42 5.88L178.64 5.88L178.64 6.97L176.12 6.97L176.12 14.59L178.64 14.59L178.64 15.68L172.42 15.68L172.42 14.59L174.94 14.59L174.94 6.97L172.42 6.97ZM190.19 5.88L193.02 15.18L193.19 15.18L193.19 5.88L194.36 5.88L194.36 15.68L192.01 15.68L189.18 6.38L189.01 6.38L189.01 15.68L187.84 15.68L187.84 5.88L190.19 5.88ZM208.98 9.21L208.98 8.71L208.98 8.71Q208.98 8.23 208.79 7.87L208.79 7.87L208.79 7.87Q208.60 7.50 208.28 7.27L208.28 7.27L208.28 7.27Q207.96 7.03 207.54 6.90L207.54 6.90L207.54 6.90Q207.12 6.78 206.65 6.78L206.65 6.78L206.65 6.78Q206.25 6.78 205.88 6.88L205.88 6.88L205.88 6.88Q205.52 6.99 205.23 7.18L205.23 7.18L205.23 7.18Q204.95 7.38 204.78 7.66L204.78 7.66L204.78 7.66Q204.61 7.95 204.61 8.33L204.61 8.33L204.61 8.41L204.61 8.41Q204.61 8.82 204.78 9.11L204.78 9.11L204.78 9.11Q204.95 9.39 205.28 9.60L205.28 9.60L205.28 9.60Q205.60 9.80 206.09 9.93L206.09 9.93L206.09 9.93Q206.58 10.07 207.24 10.16L207.24 10.16L207.24 10.16Q208.78 10.40 209.51 11.07L209.51 11.07L209.51 11.07Q210.24 11.73 210.24 12.85L210.24 12.85L210.24 13.02L210.24 13.02Q210.24 13.65 210.02 14.17L210.02 14.17L210.02 14.17Q209.80 14.70 209.38 15.08L209.38 15.08L209.38 15.08Q208.95 15.46 208.32 15.67L208.32 15.67L208.32 15.67Q207.69 15.88 206.86 15.88L206.86 15.88L206.86 15.88Q205.93 15.88 205.21 15.60L205.21 15.60L205.21 15.60Q204.48 15.33 204.00 14.85L204.00 14.85L204.00 14.85Q203.52 14.36 203.27 13.71L203.27 13.71L203.27 13.71Q203.01 13.06 203.01 12.29L203.01 12.29L203.01 11.87L204.19 11.87L204.19 12.21L204.19 12.21Q204.19 13.50 204.90 14.14L204.90 14.14L204.90 14.14Q205.60 14.78 206.86 14.78L206.86 14.78L206.86 14.78Q207.96 14.78 208.51 14.30L208.51 14.30L208.51 14.30Q209.06 13.82 209.06 13.02L209.06 13.02L209.06 12.94L209.06 12.94Q209.06 12.17 208.50 11.76L208.50 11.76L208.50 11.76Q207.93 11.35 206.65 11.17L206.65 11.17L206.65 11.17Q205.91 11.07 205.32 10.87L205.32 10.87L205.32 10.87Q204.72 10.67 204.30 10.34L204.30 10.34L204.30 10.34Q203.88 10.01 203.66 9.55L203.66 9.55L203.66 9.55Q203.43 9.09 203.43 8.46L203.43 8.46L203.43 8.29L203.43 8.29Q203.43 7.71 203.67 7.24L203.67 7.24L203.67 7.24Q203.91 6.76 204.34 6.41L204.34 6.41L204.34 6.41Q204.76 6.06 205.36 5.87L205.36 5.87L205.36 5.87Q205.95 5.68 206.67 5.68L206.67 5.68L206.67 5.68Q207.49 5.68 208.15 5.92L208.15 5.92L208.15 5.92Q208.80 6.16 209.24 6.56L209.24 6.56L209.24 6.56Q209.69 6.96 209.92 7.50L209.92 7.50L209.92 7.50Q210.15 8.04 210.15 8.62L210.15 8.62L210.15 9.21L208.98 9.21ZM222.64 11.65L220.32 11.65L220.32 15.68L219.14 15.68L219.14 5.88L222.64 5.88L222.64 5.88Q223.40 5.88 223.96 6.10L223.96 6.10L223.96 6.10Q224.52 6.31 224.89 6.68L224.89 6.68L224.89 6.68Q225.26 7.04 225.45 7.53L225.45 7.53L225.45 7.53Q225.64 8.01 225.64 8.54L225.64 8.54L225.64 8.96L225.64 8.96Q225.64 9.49 225.45 9.98L225.45 9.98L225.45 9.98Q225.26 10.47 224.88 10.84L224.88 10.84L224.88 10.84Q224.50 11.21 223.94 11.43L223.94 11.43L223.94 11.43Q223.38 11.65 222.64 11.65L222.64 11.65ZM220.32 6.97L220.32 10.56L222.50 10.56L222.50 10.56Q224.46 10.56 224.46 8.88L224.46 8.88L224.46 8.62L224.46 8.62Q224.46 7.88 223.98 7.43L223.98 7.43L223.98 7.43Q223.50 6.97 222.50 6.97L222.50 6.97L220.32 6.97ZM234.70 6.97L234.70 5.88L240.91 5.88L240.91 6.97L238.39 6.97L238.39 14.59L240.91 14.59L240.91 15.68L234.70 15.68L234.70 14.59L237.22 14.59L237.22 6.97L234.70 6.97ZM256.44 12.15L256.44 15.68L255.26 15.68L255.26 12.40L255.26 12.40Q255.26 12.04 255.09 11.84L255.09 11.84L255.09 11.84Q254.93 11.65 254.51 11.65L254.51 11.65L251.45 11.65L251.45 15.68L250.28 15.68L250.28 5.88L253.78 5.88L253.78 5.88Q254.53 5.88 255.09 6.10L255.09 6.10L255.09 6.10Q255.65 6.31 256.03 6.68L256.03 6.68L256.03 6.68Q256.40 7.04 256.59 7.53L256.59 7.53L256.59 7.53Q256.77 8.01 256.77 8.54L256.77 8.54L256.77 8.96L256.77 8.96Q256.77 9.51 256.47 10.05L256.47 10.05L256.47 10.05Q256.17 10.60 255.54 10.89L255.54 10.89L255.54 11.06L255.54 11.06Q255.96 11.13 256.20 11.40L256.20 11.40L256.20 11.40Q256.44 11.66 256.44 12.15L256.44 12.15ZM251.45 6.97L251.45 10.56L253.64 10.56L253.64 10.56Q254.63 10.56 255.12 10.13L255.12 10.13L255.12 10.13Q255.60 9.70 255.60 8.88L255.60 8.88L255.60 8.62L255.60 8.62Q255.60 7.88 255.12 7.43L255.12 7.43L255.12 7.43Q254.63 6.97 253.64 6.97L253.64 6.97L251.45 6.97ZM271.75 15.68L271.04 13.24L266.84 13.24L266.13 15.68L264.87 15.68L267.83 5.88L270.05 5.88L273.01 15.68L271.75 15.68ZM269.02 6.38L268.86 6.38L267.16 12.15L270.72 12.15L269.02 6.38ZM281.06 6.97L281.06 5.88L287.95 5.88L287.95 6.97L285.10 6.97L285.10 15.68L283.92 15.68L283.92 6.97L281.06 6.97ZM296.97 6.97L296.97 5.88L303.18 5.88L303.18 6.97L300.66 6.97L300.66 14.59L303.18 14.59L303.18 15.68L296.97 15.68L296.97 14.59L299.49 14.59L299.49 6.97L296.97 6.97ZM312.20 11.87L312.20 9.69L312.20 9.69Q312.20 7.78 313.11 6.73L313.11 6.73L313.11 6.73Q314.02 5.68 315.64 5.68L315.64 5.68L315.64 5.68Q317.27 5.68 318.18 6.73L318.18 6.73L318.18 6.73Q319.09 7.78 319.09 9.69L319.09 9.69L319.09 11.87L319.09 11.87Q319.09 13.83 318.18 14.85L318.18 14.85L318.18 14.85Q317.27 15.88 315.64 15.88L315.64 15.88L315.64 15.88Q314.02 15.88 313.11 14.85L313.11 14.85L313.11 14.85Q312.20 13.83 312.20 11.87L312.20 11.87ZM315.64 14.78L315.64 14.78L315.64 14.78Q316.78 14.78 317.35 14.01L317.35 14.01L317.35 14.01Q317.91 13.23 317.91 11.79L317.91 11.79L317.91 9.77L317.91 9.77Q317.91 8.43 317.35 7.60L317.35 7.60L317.35 7.60Q316.78 6.78 315.64 6.78L315.64 6.78L315.64 6.78Q314.51 6.78 313.94 7.60L313.94 7.60L313.94 7.60Q313.38 8.43 313.38 9.77L313.38 9.77L313.38 11.79L313.38 11.79Q313.38 13.23 313.94 14.01L313.94 14.01L313.94 14.01Q314.51 14.78 315.64 14.78ZM330.30 5.88L333.13 15.18L333.30 15.18L333.30 5.88L334.47 5.88L334.47 15.68L332.12 15.68L329.29 6.38L329.13 6.38L329.13 15.68L327.95 15.68L327.95 5.88L330.30 5.88Z"></path></g></svg>