<svg data-v-fde0c5aa="" xmlns="http://www.w3.org/2000/svg" viewBox="0 0 300 300" class="font"><!----><defs data-v-fde0c5aa=""><!----></defs><rect data-v-fde0c5aa="" fill="transparent" x="0" y="0" width="300px" height="300px" class="logo-background-square"></rect><defs data-v-fde0c5aa=""><linearGradient data-v-fde0c5aa="" gradientTransform="rotate(25)" id="24200abc-277c-4eca-b114-3094b0e4252c" x1="0%" y1="0%" x2="100%" y2="0%"><stop data-v-fde0c5aa="" offset="0%" stop-color="#B4373D" stop-opacity="1"></stop><stop data-v-fde0c5aa="" offset="100%" stop-color="#B23ACB" stop-opacity="1"></stop></linearGradient></defs><g data-v-fde0c5aa="" id="19f2d662-bfa0-4433-a58a-c198ce36df70" fill="url(#24200abc-277c-4eca-b114-3094b0e4252c)" transform="matrix(1.2564249657505089,0,0,1.2564249657505089,39.73615074670796,141.1798967129098)"><path d="M4.65 0.70L1.41 9.45L0.21 9.91L0.31 10.50L3.50 10.50L3.60 9.91L2.16 9.45L2.95 7.20L6.62 7.20L7.41 9.45L6.20 9.91L6.30 10.50L10.11 10.50L10.22 9.91L9.02 9.45L5.87 0.46ZM5.00 1.78L5.00 2.49L6.41 6.61L3.18 6.61ZM16.90 0.70C16.90 0.70 16.91 0.04 16.14 0.04C15.68 0.04 15.06 0.14 14.74 0.20L14.74 0.70L15.58 0.70L15.58 3.81L15.90 5.28C15.60 4.45 14.81 3.81 13.75 3.81C11.83 3.81 10.82 5.46 10.82 7.53C10.82 9.62 11.86 10.65 13.89 10.65C14.57 10.65 15.29 10.28 15.61 9.60C15.81 10.39 16.41 10.65 16.90 10.65C17.16 10.65 17.44 10.61 17.67 10.50L17.67 10.00C17.23 10.00 16.90 9.79 16.90 9.35ZM14.08 10.12C12.91 10.12 12.28 9.24 12.28 7.56C12.28 5.88 12.74 4.47 13.94 4.47C14.57 4.47 15.58 5.11 15.58 6.92L15.58 7.77C15.58 9.37 14.78 10.12 14.08 10.12ZM20.96 10.65C21.64 10.65 22.36 10.28 22.68 9.60C22.88 10.39 23.42 10.65 23.91 10.65C24.18 10.65 24.46 10.61 24.68 10.50L24.68 10.00C24.25 10.00 23.91 9.79 23.91 9.35L23.91 3.96L23.42 3.81L22.60 4.03C22.25 3.85 21.80 3.81 21.38 3.81C19.61 3.81 18.17 4.90 18.17 7.57C18.17 9.83 19.59 10.65 20.96 10.65ZM22.60 7.77C22.60 9.37 21.80 10.00 21.10 10.00C20.33 10.00 19.53 9.45 19.53 7.50C19.53 5.08 20.55 4.33 21.45 4.33C21.87 4.33 22.15 4.40 22.60 4.65ZM29.43 3.81C28.69 3.81 27.82 4.38 27.52 5.43L27.52 4.47C27.52 4.47 27.54 3.81 26.77 3.81C26.31 3.81 25.69 3.91 25.37 3.96L25.37 4.47L26.21 4.47L26.21 10.50L27.52 10.50L27.52 7.39C27.52 5.42 28.39 4.47 29.09 4.47C29.75 4.47 30.25 5.05 30.25 5.89L30.25 10.50L31.57 10.50L31.57 7C31.57 5.25 32.42 4.47 33.11 4.47C33.89 4.47 34.29 5.18 34.29 6.20L34.29 9.38C34.29 10.36 34.97 10.65 35.49 10.65C35.87 10.65 36.23 10.60 36.43 10.50L36.43 10.00C35.99 10.00 35.60 9.79 35.60 9.35L35.60 6.31C35.60 4.83 35 3.81 33.42 3.81C32.63 3.81 31.74 4.38 31.43 5.40C31.23 4.37 30.60 3.81 29.43 3.81ZM38.46 4.59L38.93 0.70L38.54 0.46L37.60 0.70L38.07 4.59ZM42.67 4.33C43.06 4.33 43.39 4.40 43.64 4.49L44.07 5.64C44.46 5.64 44.79 5.32 44.79 4.94C44.79 4.16 43.78 3.81 42.74 3.81C41.22 3.81 40.22 4.54 40.22 5.67C40.22 6.78 41.06 7.25 42 7.69C42.78 8.04 43.76 8.37 43.76 9.06C43.76 9.73 43.12 10.12 42.22 10.12C41.93 10.12 41.45 9.98 41.19 9.81L40.85 8.86C40.49 8.86 40.18 9.13 40.18 9.49C40.18 10.29 40.92 10.65 42.34 10.65C43.96 10.65 44.88 9.88 44.88 8.69C44.88 7.46 43.82 6.99 42.83 6.57C42.17 6.29 41.33 5.94 41.33 5.19C41.33 4.72 41.85 4.33 42.67 4.33ZM52.15 1.29L53.42 1.29C54.94 1.29 55.52 2.31 55.52 3.71C55.52 4.87 54.71 6.02 53.40 6.02L52.74 6.02L52.74 6.61L53.35 6.61C55.27 6.61 56.97 5.89 56.97 3.71C56.97 1.89 55.92 0.70 53.89 0.70L49.55 0.70L49.43 1.29L50.67 1.75L50.67 9.45L49.46 9.91L49.56 10.50L53.26 10.50L53.37 9.91L52.15 9.45ZM63.95 5.78C63.95 4.34 62.86 3.81 61.24 3.81C59.28 3.81 57.88 5.07 57.88 7.22C57.88 9.30 59.04 10.65 61.52 10.65C62.43 10.65 63.32 10.37 63.92 9.83L63.60 9.37C63.03 9.73 62.34 10.00 61.60 10.00C60.33 10.00 59.61 9.14 59.42 7.87C61.78 7.87 63.95 7.49 63.95 5.78ZM59.36 7.11C59.36 5.52 59.98 4.33 61.18 4.33C62.15 4.33 62.64 4.73 62.64 5.61C62.64 6.65 61.19 7.36 59.36 7.38ZM65.72 4.47L65.72 10.50L67.03 10.50L67.03 7.39C67.03 5.42 68.15 4.47 68.82 4.47L69.22 5.36C69.66 5.36 70.01 5.04 70.01 4.62C70.01 4.20 69.75 3.81 69.02 3.81C68.29 3.81 67.40 4.42 67.03 5.43L67.03 4.66C67.03 4.66 67.05 3.81 66.28 3.81C65.81 3.81 65.25 3.91 64.93 3.96L64.93 4.47ZM73.21 4.33C73.60 4.33 73.92 4.40 74.17 4.49L74.61 5.64C75.00 5.64 75.32 5.32 75.32 4.94C75.32 4.16 74.31 3.81 73.28 3.81C71.75 3.81 70.76 4.54 70.76 5.67C70.76 6.78 71.60 7.25 72.53 7.69C73.32 8.04 74.30 8.37 74.30 9.06C74.30 9.73 73.65 10.12 72.76 10.12C72.46 10.12 71.99 9.98 71.72 9.81L71.39 8.86C71.02 8.86 70.71 9.13 70.71 9.49C70.71 10.29 71.46 10.65 72.87 10.65C74.49 10.65 75.42 9.88 75.42 8.69C75.42 7.46 74.35 6.99 73.36 6.57C72.70 6.29 71.86 5.94 71.86 5.19C71.86 4.72 72.38 4.33 73.21 4.33ZM79.83 3.81C77.76 3.81 76.54 5.12 76.54 7.22C76.54 9.32 77.62 10.65 79.83 10.65C82.05 10.65 83.12 9.38 83.12 7.22C83.12 5.07 81.90 3.81 79.83 3.81ZM79.83 4.33C81.00 4.33 81.76 5.39 81.76 7.18C81.76 8.96 81.02 10.14 79.83 10.14C78.64 10.14 77.90 8.95 77.90 7.18C77.90 5.42 78.67 4.33 79.83 4.33ZM86.32 4.47C86.32 4.47 86.34 3.81 85.57 3.81C85.11 3.81 84.49 3.91 84.17 3.96L84.17 4.47L85.01 4.47L85.01 10.50L86.32 10.50L86.32 7.39C86.32 5.32 87.36 4.47 88.07 4.47C88.77 4.47 89.21 5.05 89.21 5.95L89.21 9.38C89.21 10.36 89.89 10.65 90.41 10.65C90.79 10.65 91.15 10.60 91.35 10.50L91.35 10.00C90.92 10.00 90.52 9.79 90.52 9.35L90.52 6.30C90.52 4.76 89.88 3.81 88.35 3.81C87.63 3.81 86.67 4.45 86.32 5.43ZM95.06 10.65C95.75 10.65 96.46 10.28 96.78 9.60C96.98 10.39 97.52 10.65 98.01 10.65C98.28 10.65 98.56 10.61 98.78 10.50L98.78 10.00C98.35 10.00 98.01 9.79 98.01 9.35L98.01 3.96L97.52 3.81L96.70 4.03C96.35 3.85 95.90 3.81 95.48 3.81C93.72 3.81 92.27 4.90 92.27 7.57C92.27 9.83 93.69 10.65 95.06 10.65ZM96.70 7.77C96.70 9.37 95.90 10.00 95.20 10.00C94.43 10.00 93.63 9.45 93.63 7.50C93.63 5.08 94.65 4.33 95.55 4.33C95.97 4.33 96.25 4.40 96.70 4.65ZM100.38 0.70L100.38 9.38C100.38 10.36 101.07 10.65 101.58 10.65C101.96 10.65 102.33 10.60 102.52 10.50L102.52 10.00C102.09 10.00 101.70 9.79 101.70 9.35L101.70 0.70C101.70 0.70 101.71 0.04 100.94 0.04C100.48 0.04 99.86 0.14 99.54 0.20L99.54 0.70ZM110.99 1.29C113.37 1.29 114.46 3.12 114.46 5.50C114.46 7.88 113.37 9.91 110.99 9.91L109.77 9.91L109.77 1.29ZM110.95 10.50C114.46 10.50 116.10 8.25 116.10 5.53C116.10 2.81 114.49 0.70 110.99 0.70L107.17 0.70L107.07 1.29L108.29 1.75L108.29 9.45L107.09 9.91L107.18 10.50ZM123.09 5.78C123.09 4.34 122.00 3.81 120.37 3.81C118.41 3.81 117.01 5.07 117.01 7.22C117.01 9.30 118.17 10.65 120.65 10.65C121.56 10.65 122.46 10.37 123.06 9.83L122.74 9.37C122.16 9.73 121.48 10.00 120.74 10.00C119.46 10.00 118.75 9.14 118.55 7.87C120.92 7.87 123.09 7.49 123.09 5.78ZM118.50 7.11C118.50 5.52 119.11 4.33 120.32 4.33C121.28 4.33 121.77 4.73 121.77 5.61C121.77 6.65 120.33 7.36 118.50 7.38ZM127.88 3.81C127.44 3.81 127.11 4.16 127.11 4.59C127.11 5.03 127.44 5.36 127.88 5.36L128.25 4.80C128.93 5.18 129.18 6.47 129.18 7.43C129.18 9.45 128.06 10.12 127.36 10.12C126.46 10.12 125.75 9.63 125.75 8.39L125.75 4.47C125.75 4.47 125.76 3.81 124.99 3.81C124.53 3.81 123.97 3.91 123.65 3.96L123.65 4.47L124.43 4.47L124.43 8.26C124.43 9.56 125.36 10.65 126.88 10.65C128.41 10.65 129.84 10.18 129.84 7.24C129.84 6.30 129.35 3.81 127.88 3.81ZM136.96 5.78C136.96 4.34 135.87 3.81 134.25 3.81C132.29 3.81 130.89 5.07 130.89 7.22C130.89 9.30 132.05 10.65 134.53 10.65C135.44 10.65 136.33 10.37 136.93 9.83L136.61 9.37C136.04 9.73 135.35 10.00 134.61 10.00C133.34 10.00 132.62 9.14 132.43 7.87C134.79 7.87 136.96 7.49 136.96 5.78ZM132.37 7.11C132.37 5.52 132.99 4.33 134.19 4.33C135.16 4.33 135.65 4.73 135.65 5.61C135.65 6.65 134.20 7.36 132.37 7.38ZM138.78 0.70L138.78 9.38C138.78 10.36 139.47 10.65 139.99 10.65C140.36 10.65 140.73 10.60 140.92 10.50L140.92 10.00C140.49 10.00 140.10 9.79 140.10 9.35L140.10 0.70C140.10 0.70 140.11 0.04 139.34 0.04C138.88 0.04 138.26 0.14 137.94 0.20L137.94 0.70ZM145.33 3.81C143.26 3.81 142.04 5.12 142.04 7.22C142.04 9.32 143.12 10.65 145.33 10.65C147.56 10.65 148.62 9.38 148.62 7.22C148.62 5.07 147.41 3.81 145.33 3.81ZM145.33 4.33C146.51 4.33 147.27 5.39 147.27 7.18C147.27 8.96 146.52 10.14 145.33 10.14C144.14 10.14 143.40 8.95 143.40 7.18C143.40 5.42 144.17 4.33 145.33 4.33ZM151.37 4.66C151.37 4.66 151.38 3.81 150.61 3.81C150.15 3.81 149.53 3.91 149.21 3.96L149.21 4.47L150.05 4.47L150.05 12.73C150.05 13.71 150.74 14 151.26 14C151.63 14 152.00 13.94 152.19 13.85L152.19 13.34C151.76 13.34 151.37 13.13 151.37 12.70L151.37 7.39C151.37 5.42 152.54 4.47 153.22 4.47C154.04 4.47 154.64 4.86 154.64 6.65C154.64 8.55 153.51 9.98 152.40 9.98L151.82 9.98L151.82 10.50L152.43 10.50C154.57 10.50 156.13 8.83 156.13 6.75C156.13 4.47 154.92 3.81 153.52 3.81C152.80 3.81 151.73 4.42 151.37 5.43ZM158.70 0.74C158.28 0.74 157.95 1.08 157.95 1.50C157.95 1.92 158.28 2.25 158.70 2.25C159.11 2.25 159.46 1.92 159.46 1.50C159.46 1.08 159.11 0.74 158.70 0.74ZM159.40 4.47C159.40 4.47 159.42 3.81 158.65 3.81C158.19 3.81 157.57 3.91 157.25 3.96L157.25 4.47L158.09 4.47L158.09 10.50L159.40 10.50ZM163.23 4.47C163.23 4.47 163.24 3.81 162.47 3.81C162.01 3.81 161.39 3.91 161.07 3.96L161.07 4.47L161.91 4.47L161.91 10.50L163.23 10.50L163.23 7.39C163.23 5.32 164.26 4.47 164.98 4.47C165.68 4.47 166.11 5.05 166.11 5.95L166.11 9.38C166.11 10.36 166.80 10.65 167.31 10.65C167.69 10.65 168.06 10.60 168.25 10.50L168.25 10.00C167.82 10.00 167.43 9.79 167.43 9.35L167.43 6.30C167.43 4.76 166.78 3.81 165.26 3.81C164.53 3.81 163.58 4.45 163.23 5.43ZM170.69 7.53C170.69 5.42 171.49 4.33 172.66 4.33C173.15 4.33 173.60 4.47 173.99 4.59L173.99 7.07C173.99 9.04 172.96 9.84 172.26 9.84C171.42 9.84 170.69 9.34 170.69 7.53ZM175.31 3.96L174.82 3.81L173.99 4.03C173.64 3.89 173.05 3.81 172.63 3.81C170.51 3.81 169.23 5.26 169.23 7.60C169.23 9.65 170.28 10.50 171.96 10.50C173.12 10.50 173.95 9.74 174.27 8.75L173.99 10.35L173.99 11.40C173.99 12.98 173.11 13.36 172.13 13.36C171.09 13.36 170.53 12.73 170.53 12.15C170.53 11.80 170.77 11.40 171.19 11.17L170.91 10.75C170.32 10.96 169.62 11.52 169.62 12.24C169.62 13.40 170.80 14 172.13 14C173.80 14 175.31 13.36 175.31 11.24Z"></path></g><!----><!----></svg>